<?xml version="1.0" encoding="UTF-8"?>
<svg xmlns="http://www.w3.org/2000/svg" xmlns:xlink="http://www.w3.org/1999/xlink" width="30px" height="30px" viewBox="0 0 30 30" version="1.1">
<g id="surface1">
<path style=" stroke:none;fill-rule:nonzero;fill:rgb(30.196078%,56.470588%,83.529412%);fill-opacity:1;" d="M 30 15 C 30 23.285156 23.285156 30 15 30 C 6.714844 30 0 23.285156 0 15 C 0 6.714844 6.714844 0 15 0 C 23.285156 0 30 6.714844 30 15 Z M 30 15 "/>
<path style=" stroke:none;fill-rule:nonzero;fill:rgb(100%,100%,100%);fill-opacity:1;" d="M 21.679688 17.8125 C 21.679688 21.5 18.6875 24.492188 15 24.492188 C 11.3125 24.492188 8.320312 21.5 8.320312 17.8125 C 8.320312 14.125 13.710938 5.976562 15 5.976562 C 16.289062 5.976562 21.679688 14.125 21.679688 17.8125 Z M 15.820312 20.039062 C 13.878906 20.039062 12.304688 18.464844 12.304688 16.523438 C 12.304688 16.066406 12.394531 15.617188 12.566406 15.195312 C 10.980469 16.246094 10.355469 18.269531 11.082031 20.03125 C 11.804688 21.792969 13.671875 22.796875 15.539062 22.425781 C 17.40625 22.058594 18.75 20.417969 18.75 18.515625 C 18.75 18.5 18.75 18.484375 18.75 18.46875 C 18.097656 19.449219 17 20.039062 15.820312 20.039062 Z M 15.820312 20.039062 "/>
</g>
</svg>
