<?xml version="1.0" encoding="UTF-8"?>
<svg xmlns="http://www.w3.org/2000/svg" xmlns:xlink="http://www.w3.org/1999/xlink" width="30px" height="30px" viewBox="0 0 30 30" version="1.1">
<g id="surface1">
<path style=" stroke:none;fill-rule:nonzero;fill:rgb(35.294118%,32.54902%,40%);fill-opacity:1;" d="M 30 15 C 30 23.285156 23.285156 30 15 30 C 6.714844 30 0 23.285156 0 15 C 0 6.714844 6.714844 0 15 0 C 23.285156 0 30 6.714844 30 15 Z M 30 15 "/>
<path style=" stroke:none;fill-rule:nonzero;fill:rgb(100%,100%,100%);fill-opacity:1;" d="M 22.535156 15 C 22.535156 17.386719 21.382812 19.625 19.441406 21.011719 C 17.496094 22.398438 15.003906 22.757812 12.746094 21.980469 C 15.726562 20.953125 17.722656 18.148438 17.722656 15 C 17.722656 11.851562 15.726562 9.046875 12.746094 8.019531 C 15.003906 7.242188 17.496094 7.601562 19.441406 8.988281 C 21.382812 10.375 22.535156 12.613281 22.535156 15 Z M 15 5.625 C 9.824219 5.625 5.625 9.824219 5.625 15 C 5.625 20.175781 9.824219 24.375 15 24.375 C 20.175781 24.375 24.375 20.175781 24.375 15 C 24.375 9.824219 20.175781 5.625 15 5.625 Z M 15 5.625 "/>
</g>
</svg>
