<?xml version="1.0" encoding="UTF-8"?>
<svg xmlns="http://www.w3.org/2000/svg" xmlns:xlink="http://www.w3.org/1999/xlink" width="30px" height="30px" viewBox="0 0 30 30" version="1.1">
<g id="surface1">
<path style=" stroke:none;fill-rule:nonzero;fill:rgb(38.823529%,73.333333%,35.686275%);fill-opacity:1;" d="M 30 15 C 30 23.285156 23.285156 30 15 30 C 6.714844 30 0 23.285156 0 15 C 0 6.714844 6.714844 0 15 0 C 23.285156 0 30 6.714844 30 15 Z M 30 15 "/>
<path style=" stroke:none;fill-rule:nonzero;fill:rgb(100%,100%,100%);fill-opacity:1;" d="M 23.382812 6.179688 C 22.746094 5.621094 20.207031 6.234375 19.484375 6.320312 C 17.09375 6.582031 14.734375 7.101562 12.453125 7.871094 C 10.097656 8.703125 8.175781 9.90625 7.0625 12.230469 C 5.683594 15.195312 6.078125 18.683594 8.09375 21.261719 C 8.605469 20.714844 9.34375 20.164062 9.746094 19.535156 C 10.289062 18.699219 9.992188 17.027344 10.035156 15.976562 C 10.046875 15.667969 10.160156 11.386719 10.367188 11.371094 C 10.621094 11.355469 11.277344 15.558594 11.511719 17.125 C 11.527344 17.226562 11.601562 17.308594 11.699219 17.339844 C 11.796875 17.375 11.902344 17.351562 11.980469 17.28125 C 12.535156 16.730469 13.097656 16.183594 13.660156 15.640625 C 14.042969 15.265625 14.234375 15.121094 14.339844 14.636719 C 14.441406 14.152344 14.363281 13.492188 14.398438 12.976562 C 14.417969 12.671875 14.632812 8.816406 14.910156 8.796875 C 15.183594 8.777344 15.765625 11.804688 15.980469 12.933594 C 16 13.011719 16.058594 13.074219 16.136719 13.097656 C 16.210938 13.121094 16.296875 13.105469 16.355469 13.050781 C 17.496094 11.949219 21.042969 8.5 21.210938 8.652344 C 21.378906 8.808594 18.429688 12.769531 17.488281 14.042969 C 17.445312 14.109375 17.4375 14.195312 17.472656 14.269531 C 17.503906 14.339844 17.574219 14.390625 17.652344 14.402344 C 18.804688 14.464844 21.871094 14.664062 21.898438 14.917969 C 21.921875 15.171875 18.097656 15.921875 17.820312 15.976562 C 17.351562 16.070312 16.828125 16.105469 16.359375 16.226562 C 15.757812 16.382812 15.65625 16.53125 15.277344 17.054688 C 14.808594 17.679688 14.339844 18.304688 13.871094 18.929688 C 13.808594 19.015625 13.796875 19.128906 13.84375 19.226562 C 13.890625 19.320312 13.988281 19.382812 14.09375 19.386719 C 15.675781 19.410156 19.925781 19.507812 19.953125 19.761719 C 19.964844 19.972656 15.734375 20.644531 15.429688 20.699219 C 14.460938 20.863281 12.824219 20.796875 12.050781 21.308594 C 11.453125 21.703125 10.902344 22.757812 10.445312 23.316406 C 13.167969 24.921875 16.550781 24.921875 19.273438 23.316406 C 21.523438 21.972656 22.554688 19.929688 23.101562 17.457031 C 23.597656 15.058594 23.816406 12.609375 23.757812 10.160156 C 23.757812 9.269531 23.726562 8.375 23.636719 7.492188 C 23.601562 7.191406 23.632812 6.402344 23.382812 6.179688 Z M 23.382812 6.179688 "/>
</g>
</svg>
