<?xml version="1.0" encoding="UTF-8"?>
<svg xmlns="http://www.w3.org/2000/svg" xmlns:xlink="http://www.w3.org/1999/xlink" width="30px" height="30px" viewBox="0 0 30 30" version="1.1">
<g id="surface1">
<path style=" stroke:none;fill-rule:nonzero;fill:rgb(97.647059%,44.313725%,46.27451%);fill-opacity:1;" d="M 30 15 C 30 23.285156 23.285156 30 15 30 C 6.714844 30 0 23.285156 0 15 C 0 6.714844 6.714844 0 15 0 C 23.285156 0 30 6.714844 30 15 Z M 30 15 "/>
<path style=" stroke:none;fill-rule:nonzero;fill:rgb(99.607843%,96.078431%,96.078431%);fill-opacity:1;" d="M 19.8125 22.386719 C 15.699219 24.589844 10.09375 23.574219 7.65625 19.386719 C 5.429688 15.566406 6.640625 10.191406 10.367188 7.773438 C 14.09375 5.351562 19.53125 6.441406 22.109375 9.992188 C 25.117188 14.132812 22.867188 20.339844 17.5625 20.832031 C 15.332031 21.039062 12.875 20.007812 11.796875 17.949219 C 10.835938 16.097656 11.296875 13.410156 13.050781 12.183594 C 14.808594 10.960938 17.648438 11.1875 18.539062 13.359375 C 18.917969 14.28125 18.773438 15.542969 18.054688 16.273438 C 17.453125 16.875 16.046875 17.109375 15.390625 16.40625 C 15.15625 16.148438 14.902344 15.667969 15.355469 15.484375 C 15.535156 15.414062 15.988281 15.71875 16.203125 15.71875 C 17.183594 15.707031 17.496094 14.464844 16.992188 13.738281 C 16.378906 12.855469 15.027344 12.921875 14.257812 13.519531 C 13.320312 14.25 13.203125 15.460938 13.609375 16.519531 C 14.398438 18.558594 16.960938 19.023438 18.707031 17.855469 C 20.402344 16.71875 20.660156 13.988281 19.800781 12.261719 C 18.628906 9.890625 15.390625 9.195312 13.050781 10.039062 C 10.714844 10.886719 9.359375 13.152344 9.300781 15.566406 C 9.261719 17.757812 10.285156 19.828125 12.042969 21.132812 C 14.328125 22.800781 17.15625 22.386719 19.8125 22.386719 Z M 19.8125 22.386719 "/>
</g>
</svg>
