<?xml version="1.0" encoding="UTF-8"?>
<svg xmlns="http://www.w3.org/2000/svg" xmlns:xlink="http://www.w3.org/1999/xlink" width="30px" height="30px" viewBox="0 0 30 30" version="1.1">
<g id="surface1">
<path style=" stroke:none;fill-rule:nonzero;fill:rgb(45.490196%,80.784314%,75.294118%);fill-opacity:1;" d="M 30 15 C 30 23.285156 23.285156 30 15 30 C 6.714844 30 0 23.285156 0 15 C 0 6.714844 6.714844 0 15 0 C 23.285156 0 30 6.714844 30 15 Z M 30 15 "/>
<path style=" stroke:none;fill-rule:nonzero;fill:rgb(100%,100%,100%);fill-opacity:1;" d="M 14.09375 15.0625 L 8.917969 17.976562 L 3.929688 15 L 8.851562 12.152344 Z M 21.09375 12.023438 L 15.90625 14.9375 L 21.140625 17.855469 L 26.0625 15.007812 Z M 14.402344 8.253906 L 9.480469 5.40625 L 9.375 11.21875 L 14.492188 14.246094 Z M 20.625 18.78125 L 15.507812 15.753906 L 15.597656 21.746094 L 20.519531 24.59375 Z M 20.546875 11.109375 L 20.546875 5.414062 L 15.46875 8.246094 L 15.40625 14.183594 Z M 14.53125 21.753906 L 14.59375 15.816406 L 9.453125 18.890625 L 9.453125 24.585938 Z M 14.53125 21.753906 "/>
</g>
</svg>
