<?xml version="1.0" encoding="UTF-8"?>
<svg xmlns="http://www.w3.org/2000/svg" xmlns:xlink="http://www.w3.org/1999/xlink" width="30px" height="30px" viewBox="0 0 30 30" version="1.1">
<g id="surface1">
<path style=" stroke:none;fill-rule:nonzero;fill:rgb(32.156863%,41.176471%,67.45098%);fill-opacity:1;" d="M 30 15 C 30 23.285156 23.285156 30 15 30 C 6.714844 30 0 23.285156 0 15 C 0 6.714844 6.714844 0 15 0 C 23.285156 0 30 6.714844 30 15 Z M 30 15 "/>
<path style=" stroke:none;fill-rule:nonzero;fill:rgb(100%,100%,100%);fill-opacity:1;" d="M 23.496094 14.765625 C 23.496094 6.972656 13.828125 2.859375 8.203125 8.265625 C 2.539062 13.722656 6.4375 23.546875 14.296875 23.785156 C 18.398438 23.785156 20.28125 23.441406 23.183594 22.695312 C 22.308594 22.339844 21.496094 21.835938 20.785156 21.207031 C 22.519531 19.515625 23.5 17.191406 23.496094 14.765625 Z M 10.839844 15.46875 C 9.765625 15.464844 8.855469 14.675781 8.699219 13.613281 C 8.542969 12.550781 9.191406 11.53125 10.222656 11.222656 C 10.207031 11.328125 10.195312 11.4375 10.195312 11.542969 C 10.195312 12.226562 10.515625 12.875 11.066406 13.28125 C 11.617188 13.691406 12.324219 13.816406 12.980469 13.621094 C 12.824219 14.679688 11.914062 15.46875 10.839844 15.46875 Z M 18.078125 15.46875 C 17.007812 15.46875 16.09375 14.683594 15.9375 13.621094 C 16.59375 13.816406 17.304688 13.691406 17.855469 13.28125 C 18.402344 12.875 18.726562 12.226562 18.722656 11.542969 C 18.722656 11.4375 18.714844 11.328125 18.699219 11.222656 C 19.726562 11.53125 20.375 12.550781 20.222656 13.613281 C 20.066406 14.675781 19.15625 15.464844 18.078125 15.46875 Z M 18.078125 15.46875 "/>
</g>
</svg>
