<?xml version="1.0" encoding="UTF-8"?>
<svg xmlns="http://www.w3.org/2000/svg" xmlns:xlink="http://www.w3.org/1999/xlink" width="30px" height="30px" viewBox="0 0 30 30" version="1.1">
<g id="surface1">
<path style=" stroke:none;fill-rule:nonzero;fill:rgb(56.470588%,75.686275%,17.254902%);fill-opacity:1;" d="M 30 15 C 30 23.285156 23.285156 30 15 30 C 6.714844 30 0 23.285156 0 15 C 0 6.714844 6.714844 0 15 0 C 23.285156 0 30 6.714844 30 15 Z M 30 15 "/>
<path style=" stroke:none;fill-rule:nonzero;fill:rgb(100%,100%,100%);fill-opacity:1;" d="M 20.859375 9.375 C 19.9375 11.613281 18.160156 12.222656 15.9375 12.421875 C 14.554688 16.484375 16.082031 20.96875 18.984375 23.90625 C 24.582031 21.261719 25.609375 13.359375 20.859375 9.375 Z M 20.859375 9.375 "/>
<path style=" stroke:none;fill-rule:nonzero;fill:rgb(100%,100%,100%);fill-opacity:1;" d="M 16.976562 10.621094 C 18.019531 10.183594 18.886719 9.414062 19.453125 8.4375 C 18.839844 8.105469 18.195312 7.847656 17.523438 7.664062 L 18.824219 6.070312 C 19.058594 5.769531 19.007812 5.335938 18.714844 5.097656 C 18.417969 4.855469 17.988281 4.890625 17.738281 5.179688 L 15.96875 7.34375 C 15.324219 7.257812 14.675781 7.257812 14.03125 7.34375 L 12.261719 5.179688 C 12.105469 4.976562 11.851562 4.875 11.597656 4.914062 C 11.34375 4.953125 11.132812 5.125 11.046875 5.367188 C 10.957031 5.609375 11.007812 5.878906 11.175781 6.070312 L 12.476562 7.664062 C 11.804688 7.847656 11.160156 8.105469 10.546875 8.4375 C 11.847656 10.660156 14.589844 11.589844 16.976562 10.621094 Z M 16.976562 10.621094 "/>
<path style=" stroke:none;fill-rule:nonzero;fill:rgb(100%,100%,100%);fill-opacity:1;" d="M 11.015625 11.71875 C 10.179688 11.128906 9.53125 10.316406 9.140625 9.375 C 8.90625 9.578125 5.523438 12.511719 6.09375 17.109375 C 6.671875 21.761719 10.75 23.78125 11.015625 23.90625 C 13.917969 20.96875 15.445312 16.484375 14.0625 12.421875 C 13.578125 12.378906 12.066406 12.453125 11.015625 11.71875 Z M 11.015625 11.71875 "/>
</g>
</svg>
