<?xml version="1.0" encoding="UTF-8"?>
<svg xmlns="http://www.w3.org/2000/svg" xmlns:xlink="http://www.w3.org/1999/xlink" width="30px" height="30px" viewBox="0 0 30 30" version="1.1">
<g id="surface1">
<path style=" stroke:none;fill-rule:nonzero;fill:rgb(78.039216%,71.764706%,54.509804%);fill-opacity:1;" d="M 30 15 C 30 23.285156 23.285156 30 15 30 C 6.714844 30 0 23.285156 0 15 C 0 6.714844 6.714844 0 15 0 C 23.285156 0 30 6.714844 30 15 Z M 30 15 "/>
<path style=" stroke:none;fill-rule:nonzero;fill:rgb(100%,100%,100%);fill-opacity:1;" d="M 22.265625 7.96875 L 24.609375 15.234375 L 21.5625 18.984375 L 19.453125 15.703125 Z M 17.34375 23.671875 L 20.625 19.921875 L 18.28125 16.640625 L 11.015625 21.5625 Z M 12.1875 7.96875 L 5.625 15 L 5.859375 19.921875 L 9.375 21.09375 L 18.046875 15.234375 L 20.625 7.96875 Z M 12.1875 7.96875 "/>
</g>
</svg>
