<?xml version="1.0" encoding="UTF-8"?>
<svg xmlns="http://www.w3.org/2000/svg" xmlns:xlink="http://www.w3.org/1999/xlink" width="30px" height="30px" viewBox="0 0 30 30" version="1.1">
<g id="surface1">
<path style=" stroke:none;fill-rule:nonzero;fill:rgb(57.254902%,66.666667%,87.058824%);fill-opacity:1;" d="M 30 15 C 30 23.285156 23.285156 30 15 30 C 6.714844 30 0 23.285156 0 15 C 0 6.714844 6.714844 0 15 0 C 23.285156 0 30 6.714844 30 15 Z M 30 15 "/>
<path style=" stroke:none;fill-rule:nonzero;fill:rgb(99.215686%,99.215686%,99.607843%);fill-opacity:1;" d="M 22.96875 17.832031 C 21.980469 19.5 20.75 20.222656 19.160156 20.410156 C 18.773438 20.453125 18.378906 20.410156 17.988281 20.46875 C 17.710938 20.503906 17.519531 20.804688 17.753906 20.9375 C 18.894531 21.5625 17.863281 21.859375 17.550781 22.109375 C 15.125 24.003906 11.757812 24.136719 9.191406 22.433594 C 6.625 20.734375 5.4375 17.582031 6.238281 14.609375 C 7.011719 11.636719 9.621094 9.503906 12.6875 9.335938 C 14.632812 9.25 16.589844 9.261719 18.546875 9.3125 C 21.054688 9.375 23.347656 8.90625 25.1875 6.871094 C 25.527344 7.433594 25.386719 7.929688 25.304688 8.390625 C 24.695312 11.785156 21.765625 14.273438 18.316406 14.328125 C 17.613281 14.34375 16.910156 14.328125 16.207031 14.347656 C 15.972656 14.347656 15.707031 14.398438 15.703125 14.699219 C 15.703125 14.933594 15.9375 14.996094 16.132812 14.984375 C 18.710938 14.855469 21.390625 15.558594 23.734375 13.875 C 23.90625 13.75 24.109375 13.507812 24.332031 13.757812 C 24.515625 13.960938 24.382812 14.199219 24.265625 14.40625 C 23.226562 16.261719 21.675781 17.382812 19.527344 17.578125 C 18.910156 17.632812 18.28125 17.578125 17.652344 17.613281 C 17.292969 17.632812 16.683594 17.445312 16.664062 17.929688 C 16.644531 18.488281 17.265625 18.261719 17.601562 18.257812 C 19.304688 18.238281 21.015625 18.472656 22.96875 17.832031 Z M 22.96875 17.832031 "/>
</g>
</svg>
