<?xml version="1.0" encoding="utf-8"?>
<!-- Generator: Adobe Illustrator 23.0.3, SVG Export Plug-In . SVG Version: 6.00 Build 0)  -->
<svg version="1.1" xmlns="http://www.w3.org/2000/svg" xmlns:xlink="http://www.w3.org/1999/xlink" x="0px" y="0px"
	 viewBox="0 0 1030 500" style="enable-background:new 0 0 1030 500;" xml:space="preserve">
<style type="text/css">
	.st0{fill:#EC8FE6;}
	.st1{fill:#FFFFFF;}
	.st2{fill:#5A5366;}
	.st3{fill:#096DC4;}
	.st4{fill:#74CEC0;}
	.st5{fill:#F97176;}
	.st6{fill:#FEF5F5;}
	.st7{fill:#F3D23B;}
	.st8{fill:#63BB5B;}
	.st9{fill:#4D90D5;}
	.st10{fill:#FF9C54;}
	.st11{fill:#5A8EA1;}
	.st12{fill:#5269AC;}
	.st13{fill:#90C12C;}
	.st14{fill:#C7B78B;}
	.st15{fill:#D97746;}
	.st16{fill:#AB6AC8;}
	.st17{fill:#92AADE;}
	.st18{fill:#FDFDFE;}
	.st19{fill:#CE4069;}
	.st20{fill:#9099A1;}
</style>
<g id="fairy">
	<g>
		<circle class="st0" cx="960" cy="428" r="64"/>
		<path class="st1" d="M1007,428l-24.97-13.66l3.47-11.83l-11.83,3.47L960,381l-13.66,24.97l-11.83-3.47l3.47,11.83L913,428
			l24.97,13.66l-3.47,11.83l11.83-3.47L960,475l13.66-24.97l11.83,3.47l-3.47-11.83L1007,428z M966.72,434.72L960,447l-6.72-12.28
			L941,428l12.28-6.72L960,409l6.72,12.28L979,428L966.72,434.72z"/>
	</g>
</g>
<g id="dark">
	<g>
		<circle class="st2" cx="782" cy="428" r="64"/>
		<path class="st1" d="M814.15,428c0,17.4-14.1,31.5-31.5,31.5c-3.59,0-7.04-0.61-10.26-1.72c12.36-4.26,21.24-15.98,21.24-29.78
			s-8.88-25.52-21.24-29.78c3.22-1.11,6.67-1.72,10.26-1.72C800.04,396.5,814.15,410.6,814.15,428z M782,388
			c-22.09,0-40,17.91-40,40s17.91,40,40,40s40-17.91,40-40S804.09,388,782,388z"/>
	</g>
</g>
<g id="dragon">
	<g>
		<circle class="st3" cx="604" cy="428" r="64"/>
		<path class="st1" d="M640.89,421.49c-3.34-16.64-17.72-29.28-35.17-29.96c1.51-3.9,1.49-8.58-0.22-13.03
			c-1.96,4.39-4.83,8.36-8.47,11.51c-1.55,1.34-3.33,2.82-5.23,3.61c-1.9,0.79-3.78,1.51-5.58,2.51
			c-7.04,3.89-12.73,10.05-16.04,17.38c-1.91,4.23-3.02,8.84-3.24,13.48c4.13-1.29,8.34-2.32,12.6-3.07
			c3.79-0.66,7.62-0.95,11.41-1.51c7.02-1.04,12.51-5.07,16.37-10.97c8.15,2.61,13.8,10.39,13.81,18.94
			c0.01,7.62-4.52,14.73-11.4,17.98c-4.02,1.9-8.62,2.37-12.95,1.38c1.91,4.31,4.98,8.07,8.81,10.82c1.95,1.4,4.1,2.53,6.36,3.35
			c1.01,0.37,2.18,0.89,3.23,0.72c1.25-0.21,2.58-0.87,3.74-1.36c9.55-4.07,17.14-12.16,20.59-21.95
			C641.74,434.99,642.21,428.06,640.89,421.49z M580.81,409c2.28-2.28,5.39-3.22,8.36-2.83c0.82,6.41-4.77,12.03-11.19,11.19
			C577.59,414.39,578.53,411.28,580.81,409z M600.41,466.06c-16.14-1.65-29.23-13.57-32.65-29.11c8.01-4.3,17.42-6.78,26.55-6.44
			c-3.11,4.75-4.72,10.61-4.24,16.29C590.59,454.65,594.53,461.56,600.41,466.06z"/>
	</g>
</g>
<g id="ice">
	<g>
		<circle class="st4" cx="426" cy="428" r="64"/>
		<path class="st1" d="M422.13,428.26l-22.09,12.43l-21.29-12.74l21.04-12.15L422.13,428.26z M451.95,415.3l-22.09,12.43
			l22.33,12.45l21.04-12.15L451.95,415.3z M423.45,399.21l-21.04-12.15l-0.38,24.81l21.81,12.91L423.45,399.21z M449.97,444.13
			l-21.81-12.91l0.38,25.57l21.04,12.15L449.97,444.13z M449.66,411.4v-24.3l-21.67,12.07l-0.28,25.34L449.66,411.4z M424.02,456.82
			l0.28-25.34l-21.95,13.12v24.3L424.02,456.82z"/>
	</g>
</g>
<g id="psychic">
	<g>
		<circle class="st5" cx="248" cy="428" r="64"/>
		<path class="st6" d="M268.54,459.52c-17.55,9.38-41.48,5.06-51.88-12.81c-9.49-16.31-4.33-39.22,11.57-49.56
			c15.76-10.25,39.1-5.67,50.11,9.48c12.83,17.67,3.21,44.15-19.41,46.25c-9.53,0.89-20.05-3.52-24.6-12.3
			c-4.1-7.9-2.13-19.38,5.36-24.6c7.46-5.2,19.6-4.25,23.41,5.01c1.61,3.93,1,9.31-2.06,12.42c-2.58,2.62-8.58,3.55-11.37,0.59
			c-1.03-1.1-2.09-3.15-0.15-3.93c0.76-0.3,2.7,1.03,3.61,1.02c4.19-0.06,5.52-5.35,3.37-8.46c-2.61-3.76-8.38-3.48-11.66-0.93
			c-4.02,3.12-4.51,8.29-2.77,12.79c3.36,8.72,14.28,10.69,21.74,5.7c7.24-4.84,8.34-16.49,4.67-23.86
			c-5.04-10.12-18.82-13.08-28.79-9.48c-9.88,3.57-15.76,13.28-15.98,23.58c-0.2,9.21,4.23,18.29,11.68,23.73
			C245.13,461.29,257.2,459.52,268.54,459.52z"/>
	</g>
</g>
<g id="electric">
	<g>
		<circle class="st7" cx="70" cy="428" r="64"/>
		<polygon class="st1" points="49,393 80,393 93,434 73,433 85,467 37,417.5 60,417.5 		"/>
	</g>
</g>
<g id="grass">
	<g>
		<circle class="st8" cx="960" cy="250" r="64"/>
		<path class="st1" d="M995.76,212.37c-2.71-2.38-13.54,0.23-16.62,0.61c-10.16,1.24-20.38,3.2-30.05,6.62
			c-10.04,3.55-18.25,8.66-22.96,18.6c-5.92,12.48-4.18,27.69,4.39,38.52c2.19-2.33,5.33-4.68,7.06-7.36
			c2.31-3.57,1.05-10.7,1.22-15.18c0.05-1.33,0.54-19.6,1.43-19.66c1.08-0.07,3.86,17.86,4.86,24.54c0.15,0.98,1.34,1.37,2.05,0.67
			c2.38-2.35,4.77-4.69,7.17-7.02c1.64-1.59,2.45-2.21,2.9-4.28c0.46-2.14,0.11-4.88,0.25-7.07c0.08-1.3,1.02-17.77,2.19-17.84
			c1.09-0.07,3.65,12.83,4.57,17.66c0.14,0.75,1.06,1.04,1.61,0.51c4.86-4.71,19.96-19.44,20.71-18.78
			c0.76,0.66-11.86,17.57-15.89,23c-0.46,0.61-0.05,1.48,0.71,1.53c4.91,0.28,18.03,1.12,18.1,2.21c0.08,1.16-16.22,4.28-17.4,4.51
			c-2.04,0.4-4.22,0.54-6.23,1.07c-2.55,0.67-2.95,1.3-4.61,3.53c-2,2.69-4,5.37-6.03,8.04c-0.6,0.79-0.05,1.92,0.94,1.94
			c6.76,0.11,24.9,0.51,24.97,1.6c0.06,0.89-18,3.78-19.3,4c-4.13,0.71-11.11,0.42-14.42,2.61c-2.54,1.68-4.9,6.18-6.84,8.56
			c11.47,6.85,26.2,6.83,37.66-0.02c9.59-5.74,13.98-14.44,16.33-25.01c2.26-10.16,2.89-20.74,2.81-31.13
			c-0.03-3.8-0.14-7.61-0.52-11.39C996.7,216.69,996.83,213.31,995.76,212.37z"/>
	</g>
</g>
<g id="water">
	<g>
		<circle class="st9" cx="782" cy="250" r="64"/>
		<path class="st1" d="M810.5,262c0,15.74-12.76,28.5-28.5,28.5s-28.5-12.76-28.5-28.5s23-50.5,28.5-50.5S810.5,246.26,810.5,262z
			 M785.5,271.5c-8.28,0-15-6.72-15-15c0-2.01,0.4-3.92,1.12-5.67c-4.59,3.04-7.62,8.25-7.62,14.17c0,9.39,7.61,17,17,17
			s17-7.61,17-17c0-0.07-0.01-0.13-0.01-0.2C795.3,268.84,790.71,271.5,785.5,271.5z"/>
	</g>
</g>
<g id="fire">
	<g>
		<circle class="st10" cx="604" cy="250" r="64"/>
		<path class="st1" d="M625.66,228.61c10.26,7.29,16.23,20.77,11.7,33.01c-4.26,11.52-16.17,18.72-28.17,19.07
			c9.23-3.28,12.26-15.3,5.7-22.57c-6.45-7.14-18.4-5.57-22.81,2.96c-4.97,9.6,2.9,19.17,11.52,23.02c9.77,4.36,21.06,1.15,28.9-5.6
			c-13.5,18.53-40.83,21.79-55.83,3.31c-10.2-12.57-10.44-31.02-1.17-44.31c-2.23,7.21-0.5,14.5,5.5,18.5
			c-6-12-1.97-21.09,6.14-29.14c3.92-3.88,8.91-5.36,13.01-8.75c4.51-3.72,5.1-9.9,4.23-15.33c7.2,3.71,11.71,11.62,11.05,19.72
			c-11.49,0.05-15.61,15.87-5.59,21.52C619.61,249.52,630.94,238.54,625.66,228.61z"/>
	</g>
</g>
<g id="steel">
	<g>
		<circle class="st11" cx="426" cy="250" r="64"/>
		<path class="st1" d="M446,250c0,11.05-8.95,20-20,20c-11.05,0-20-8.95-20-20c0-11.05,8.95-20,20-20C437.05,230,446,238.95,446,250
			z M447.75,212.33h-43.5L382.5,250l21.75,37.67h43.5L469.5,250L447.75,212.33z"/>
	</g>
</g>
<g id="ghost">
	<g>
		<circle class="st12" cx="248" cy="250" r="64"/>
		<path class="st1" d="M284.25,249c0-33.25-41.26-50.8-65.21-27.73c-24.16,23.28-7.54,65.19,25.96,66.21
			c17.5,0.02,25.54-1.47,37.92-4.64c-3.77-1.54-7.22-3.7-10.22-6.35C279.82,269.5,284.25,259.77,284.25,249z M230.25,252
			c-5.11,0-9.25-4.14-9.25-9.25c0-4.19,2.79-7.73,6.61-8.86c-0.07,0.45-0.11,0.9-0.11,1.36c0,5.11,4.14,9.25,9.25,9.25
			c0.92,0,1.8-0.14,2.64-0.39C238.73,248.57,234.89,252,230.25,252z M261.14,252c-4.64,0-8.48-3.43-9.14-7.89
			c0.84,0.25,1.72,0.39,2.64,0.39c5.11,0,9.25-4.14,9.25-9.25c0-0.46-0.05-0.92-0.11-1.36c3.82,1.14,6.61,4.67,6.61,8.86
			C270.39,247.86,266.25,252,261.14,252z"/>
	</g>
</g>
<g id="bug">
	<g>
		<circle class="st13" cx="70" cy="250" r="64"/>
		<g>
			<path class="st1" d="M95,226c-3.93,9.55-11.51,12.15-21,13c-5.9,17.33,0.62,36.47,13,49C110.88,276.71,115.26,243,95,226z"/>
			<path class="st1" d="M78.43,231.31c4.41-1.84,8.19-5.16,10.57-9.31c-2.57-1.45-5.41-2.49-8.24-3.3l5.56-6.8
				c1.05-1.28,0.86-3.17-0.42-4.22c-1.28-1.05-3.17-0.86-4.22,0.42l-7.55,9.23c-2.79-0.36-5.47-0.36-8.26,0l-7.55-9.23
				c-1.05-1.28-2.94-1.47-4.22-0.42c-1.28,1.05-1.47,2.94-0.42,4.22l5.56,6.8c-2.83,0.81-5.67,1.85-8.24,3.3
				C56.42,231.45,68.39,235.5,78.43,231.31z"/>
			<path class="st1" d="M53,236c-5.03-3.51-7.21-8.09-8-10c-1.04,0.87-15.43,13.39-13,33c2.46,19.85,19.86,28.46,21,29
				c12.38-12.53,18.9-31.67,13-49C63.93,238.82,57.49,239.14,53,236z"/>
		</g>
	</g>
</g>
<g id="rock">
	<g>
		<circle class="st14" cx="960" cy="72" r="64"/>
		<path class="st1" d="M991,42l10,31l-13,16l-9-14L991,42z M970,109l14-16l-10-14l-31,21L970,109z M948,42l-28,30l1,21l15,5l37-25
			l11-31H948z"/>
	</g>
</g>
<g id="ground">
	<g>
		<circle class="st15" cx="782" cy="72" r="64"/>
		<polygon class="st1" points="807,40 777,40 757,96 827,96 		"/>
		<polygon class="st1" points="766,51 750,51 734,96 750,96 		"/>
	</g>
</g>
<g id="poison">
	<g>
		<circle class="st16" cx="604" cy="72" r="64"/>
		<path class="st1" d="M644,67c0-18.41-17.91-33.33-40-33.33S564,48.59,564,67c0,10.03,5.33,19.03,13.75,25.14
			c-1.1,1.95-1.75,4.31-1.75,6.86c0,6.63,4.33,12,9.67,12c4.16,0,7.7-3.27,9.06-7.84c1.19,4.54,4.89,7.84,9.26,7.84
			s8.07-3.31,9.26-7.84c1.36,4.57,4.9,7.84,9.06,7.84c5.34,0,9.67-5.37,9.67-12c0-2.55-0.65-4.92-1.75-6.86
			C638.67,86.03,644,77.03,644,67z M604,87.33c-14.64,0-27-9.31-27-20.33s12.36-20.33,27-20.33s27,9.31,27,20.33
			S618.64,87.33,604,87.33z"/>
	</g>
</g>
<g id="flying">
	<g>
		<circle class="st17" cx="426" cy="72" r="64"/>
		<path class="st18" d="M460.01,84.08c-4.21,7.11-9.47,10.19-16.25,10.95c-1.65,0.18-3.33,0.05-4.98,0.25
			c-1.19,0.15-2.02,1.43-0.95,2.01c4.87,2.66,0.46,3.93-0.86,4.99c-10,8.08-24.61,8.63-35.46,1.54
			c-11.12-7.26-16.29-20.8-12.81-33.54c3.46-12.66,14.46-21.88,27.45-22.46c8.3-0.37,16.64-0.33,24.95-0.1
			c10.74,0.3,20.53-1.74,28.39-10.43c1.45,2.41,0.84,4.53,0.48,6.49c-2.62,14.52-14.95,24.97-29.81,25.33
			c-2.99,0.07-5.99,0.03-8.98,0.08c-1.02,0.02-2.14,0.23-2.15,1.5c-0.01,1,0.97,1.28,1.83,1.23c10.96-0.55,22.44,2.44,32.44-4.74
			c0.73-0.53,1.6-1.57,2.55-0.5c0.78,0.87,0.21,1.89-0.28,2.76c-4.46,7.93-11.07,12.71-20.24,13.56c-2.64,0.24-5.32,0.01-7.98,0.15
			c-1.54,0.08-4.14-0.72-4.22,1.35c-0.09,2.38,2.56,1.42,3.99,1.4C444.36,85.82,451.67,86.82,460.01,84.08z"/>
	</g>
</g>
<g id="fighting">
	<g>
		<circle class="st19" cx="248" cy="72" r="64"/>
		<path class="st1" d="M206.93,89.14l5,12.19c1.74,4.25,8.07,3,8.07-1.59V64.26c0-4.59-6.33-5.84-8.07-1.59l-5,12.19
			C205.05,79.44,205.05,84.57,206.93,89.14z"/>
		<path class="st1" d="M285.5,99.25v-52.5c0-2.9-2.35-5.25-5.25-5.25h-2.5c-2.9,0-5.25,2.35-5.25,5.25v17.08
			c0,0.92-0.75,1.67-1.67,1.67l0,0c-0.92,0-1.67-0.75-1.67-1.67V46.75c0-2.9-2.35-5.25-5.25-5.25h-2.5c-2.9,0-5.25,2.35-5.25,5.25
			v17.08c0,0.92-0.75,1.67-1.67,1.67l0,0c-0.92,0-1.67-0.75-1.67-1.67V46.75c0-2.9-2.35-5.25-5.25-5.25h-2.5
			c-2.9,0-5.25,2.35-5.25,5.25v17.08c0,0.92-0.75,1.67-1.67,1.67l0,0c-0.92,0-1.67-0.75-1.67-1.67V46.75c0-2.9-2.35-5.25-5.25-5.25
			h-2.5c-2.9,0-5.25,2.35-5.25,5.25v52.5c0,2.9,2.35,5.25,5.25,5.25h51.5C283.15,104.5,285.5,102.15,285.5,99.25z"/>
	</g>
</g>
<g id="normal">
	<g>
		<circle class="st20" cx="70" cy="72" r="64"/>
		<path class="st1" d="M70,112c-22.06,0-40-17.94-40-40s17.94-40,40-40c22.06,0,40,17.94,40,40S92.06,112,70,112z M70,48
			c-13.23,0-24,10.77-24,24s10.77,24,24,24c13.23,0,24-10.77,24-24S83.23,48,70,48z"/>
	</g>
</g>
</svg>
