<?xml version="1.0" encoding="UTF-8"?>
<svg xmlns="http://www.w3.org/2000/svg" xmlns:xlink="http://www.w3.org/1999/xlink" width="30px" height="30px" viewBox="0 0 30 30" version="1.1">
<g id="surface1">
<path style=" stroke:none;fill-rule:nonzero;fill:rgb(67.058824%,41.568627%,78.431373%);fill-opacity:1;" d="M 30 15 C 30 23.285156 23.285156 30 15 30 C 6.714844 30 0 23.285156 0 15 C 0 6.714844 6.714844 0 15 0 C 23.285156 0 30 6.714844 30 15 Z M 30 15 "/>
<path style=" stroke:none;fill-rule:nonzero;fill:rgb(100%,100%,100%);fill-opacity:1;" d="M 24.375 13.828125 C 24.375 9.511719 20.175781 6.015625 15 6.015625 C 9.824219 6.015625 5.625 9.511719 5.625 13.828125 C 5.625 16.171875 6.875 18.28125 8.847656 19.71875 C 8.574219 20.210938 8.433594 20.765625 8.4375 21.328125 C 8.4375 22.882812 9.453125 24.140625 10.703125 24.140625 C 11.679688 24.140625 12.507812 23.375 12.828125 22.304688 C 13.109375 23.363281 13.972656 24.140625 15 24.140625 C 16.027344 24.140625 16.890625 23.363281 17.171875 22.304688 C 17.492188 23.375 18.320312 24.140625 19.296875 24.140625 C 20.546875 24.140625 21.5625 22.882812 21.5625 21.328125 C 21.566406 20.765625 21.425781 20.210938 21.152344 19.71875 C 23.125 18.28125 24.375 16.171875 24.375 13.828125 Z M 15 18.59375 C 11.570312 18.59375 8.671875 16.40625 8.671875 13.828125 C 8.671875 11.25 11.570312 9.0625 15 9.0625 C 18.429688 9.0625 21.328125 11.25 21.328125 13.828125 C 21.328125 16.40625 18.429688 18.59375 15 18.59375 Z M 15 18.59375 "/>
</g>
</svg>
