<?xml version="1.0" encoding="UTF-8"?>
<svg xmlns="http://www.w3.org/2000/svg" xmlns:xlink="http://www.w3.org/1999/xlink" width="30px" height="30px" viewBox="0 0 30 30" version="1.1">
<g id="surface1">
<path style=" stroke:none;fill-rule:nonzero;fill:rgb(56.470588%,60%,63.137255%);fill-opacity:1;" d="M 30 15 C 30 23.285156 23.285156 30 15 30 C 6.714844 30 0 23.285156 0 15 C 0 6.714844 6.714844 0 15 0 C 23.285156 0 30 6.714844 30 15 Z M 30 15 "/>
<path style=" stroke:none;fill-rule:nonzero;fill:rgb(100%,100%,100%);fill-opacity:1;" d="M 15 24.375 C 9.824219 24.375 5.625 20.175781 5.625 15 C 5.625 9.824219 9.824219 5.625 15 5.625 C 20.175781 5.625 24.375 9.824219 24.375 15 C 24.375 20.175781 20.175781 24.375 15 24.375 Z M 15 9.375 C 11.894531 9.375 9.375 11.894531 9.375 15 C 9.375 18.105469 11.894531 20.625 15 20.625 C 18.105469 20.625 20.625 18.105469 20.625 15 C 20.625 11.894531 18.105469 9.375 15 9.375 Z M 15 9.375 "/>
</g>
</svg>
