<?xml version="1.0" encoding="UTF-8"?>
<svg xmlns="http://www.w3.org/2000/svg" xmlns:xlink="http://www.w3.org/1999/xlink" width="30px" height="30px" viewBox="0 0 30 30" version="1.1">
<g id="surface1">
<path style=" stroke:none;fill-rule:nonzero;fill:rgb(80.784314%,25.098039%,41.176471%);fill-opacity:1;" d="M 30 15 C 30 23.285156 23.285156 30 15 30 C 6.714844 30 0 23.285156 0 15 C 0 6.714844 6.714844 0 15 0 C 23.285156 0 30 6.714844 30 15 Z M 30 15 "/>
<path style=" stroke:none;fill-rule:nonzero;fill:rgb(100%,100%,100%);fill-opacity:1;" d="M 5.375 19.015625 L 6.546875 21.875 C 6.722656 22.308594 7.183594 22.558594 7.644531 22.46875 C 8.105469 22.375 8.4375 21.972656 8.4375 21.5 L 8.4375 13.1875 C 8.4375 12.714844 8.105469 12.3125 7.644531 12.21875 C 7.183594 12.128906 6.722656 12.378906 6.546875 12.8125 L 5.375 15.671875 C 4.933594 16.742188 4.933594 17.945312 5.375 19.015625 Z M 5.375 19.015625 "/>
<path style=" stroke:none;fill-rule:nonzero;fill:rgb(100%,100%,100%);fill-opacity:1;" d="M 23.789062 21.386719 L 23.789062 9.082031 C 23.789062 8.402344 23.238281 7.851562 22.558594 7.851562 L 21.972656 7.851562 C 21.292969 7.851562 20.742188 8.402344 20.742188 9.082031 L 20.742188 13.085938 C 20.742188 13.300781 20.566406 13.476562 20.351562 13.476562 C 20.246094 13.476562 20.148438 13.433594 20.074219 13.363281 C 20 13.289062 19.960938 13.1875 19.960938 13.085938 L 19.960938 9.082031 C 19.960938 8.402344 19.410156 7.851562 18.730469 7.851562 L 18.144531 7.851562 C 17.464844 7.851562 16.914062 8.402344 16.914062 9.082031 L 16.914062 13.085938 C 16.914062 13.300781 16.738281 13.476562 16.523438 13.476562 C 16.308594 13.476562 16.132812 13.300781 16.132812 13.085938 L 16.132812 9.082031 C 16.132812 8.402344 15.582031 7.851562 14.902344 7.851562 L 14.316406 7.851562 C 13.636719 7.851562 13.085938 8.402344 13.085938 9.082031 L 13.085938 13.085938 C 13.085938 13.1875 13.046875 13.289062 12.972656 13.363281 C 12.898438 13.433594 12.800781 13.476562 12.695312 13.476562 C 12.480469 13.476562 12.304688 13.300781 12.304688 13.085938 L 12.304688 9.082031 C 12.304688 8.402344 11.753906 7.851562 11.074219 7.851562 L 10.488281 7.851562 C 9.808594 7.851562 9.257812 8.402344 9.257812 9.082031 L 9.257812 21.386719 C 9.257812 22.066406 9.808594 22.617188 10.488281 22.617188 L 22.558594 22.617188 C 23.238281 22.617188 23.789062 22.066406 23.789062 21.386719 Z M 23.789062 21.386719 "/>
</g>
</svg>
