<?xml version="1.0" encoding="UTF-8"?>
<svg xmlns="http://www.w3.org/2000/svg" xmlns:xlink="http://www.w3.org/1999/xlink" width="30px" height="30px" viewBox="0 0 30 30" version="1.1">
<g id="surface1">
<path style=" stroke:none;fill-rule:nonzero;fill:rgb(92.54902%,56.078431%,90.196078%);fill-opacity:1;" d="M 30 15 C 30 23.285156 23.285156 30 15 30 C 6.714844 30 0 23.285156 0 15 C 0 6.714844 6.714844 0 15 0 C 23.285156 0 30 6.714844 30 15 Z M 30 15 "/>
<path style=" stroke:none;fill-rule:nonzero;fill:rgb(100%,100%,100%);fill-opacity:1;" d="M 26.015625 15 L 20.15625 11.796875 L 20.96875 9.027344 L 18.203125 9.84375 L 15 3.984375 L 11.796875 9.84375 L 9.027344 9.027344 L 9.84375 11.796875 L 3.984375 15 L 9.84375 18.203125 L 9.027344 20.972656 L 11.796875 20.15625 L 15 26.015625 L 18.203125 20.15625 L 20.972656 20.96875 L 20.15625 18.203125 Z M 16.574219 16.574219 L 15 19.453125 L 13.425781 16.574219 L 10.546875 15 L 13.425781 13.425781 L 15 10.546875 L 16.574219 13.425781 L 19.453125 15 Z M 16.574219 16.574219 "/>
</g>
</svg>
