<?xml version="1.0" encoding="UTF-8"?>
<svg xmlns="http://www.w3.org/2000/svg" xmlns:xlink="http://www.w3.org/1999/xlink" width="30px" height="30px" viewBox="0 0 30 30" version="1.1">
<g id="surface1">
<path style=" stroke:none;fill-rule:nonzero;fill:rgb(100%,61.176471%,32.941176%);fill-opacity:1;" d="M 30 15 C 30 23.285156 23.285156 30 15 30 C 6.714844 30 0 23.285156 0 15 C 0 6.714844 6.714844 0 15 0 C 23.285156 0 30 6.714844 30 15 Z M 30 15 "/>
<path style=" stroke:none;fill-rule:nonzero;fill:rgb(100%,100%,100%);fill-opacity:1;" d="M 20.078125 9.988281 C 22.480469 11.695312 23.878906 14.855469 22.820312 17.722656 C 21.820312 20.421875 19.027344 22.113281 16.214844 22.191406 C 17.605469 21.703125 18.496094 20.347656 18.398438 18.875 C 18.296875 17.40625 17.230469 16.183594 15.789062 15.886719 C 14.34375 15.585938 12.878906 16.289062 12.207031 17.597656 C 11.035156 19.847656 12.886719 22.089844 14.90625 22.988281 C 17.195312 24.007812 19.84375 23.253906 21.679688 21.675781 C 18.515625 26.015625 12.109375 26.785156 8.59375 22.457031 C 6.203125 19.507812 6.148438 15.191406 8.320312 12.070312 C 7.796875 13.761719 8.203125 15.46875 9.609375 16.40625 C 8.203125 13.59375 9.140625 11.464844 11.046875 9.578125 C 11.96875 8.667969 13.136719 8.320312 14.09375 7.527344 C 15.148438 6.652344 15.289062 5.207031 15.085938 3.933594 C 16.789062 4.824219 17.800781 6.636719 17.664062 8.554688 C 15 8.566406 14.023438 12.273438 16.371094 13.59375 C 18.660156 14.886719 21.3125 12.3125 20.078125 9.988281 Z M 20.078125 9.988281 "/>
</g>
</svg>
