<?xml version="1.0" encoding="UTF-8"?>
<svg xmlns="http://www.w3.org/2000/svg" xmlns:xlink="http://www.w3.org/1999/xlink" width="30px" height="30px" viewBox="0 0 30 30" version="1.1">
<g id="surface1">
<path style=" stroke:none;fill-rule:nonzero;fill:rgb(3.529412%,42.745098%,76.862745%);fill-opacity:1;" d="M 30 15 C 30 23.285156 23.285156 30 15 30 C 6.714844 30 0 23.285156 0 15 C 0 6.714844 6.714844 0 15 0 C 23.285156 0 30 6.714844 30 15 Z M 30 15 "/>
<path style=" stroke:none;fill-rule:nonzero;fill:rgb(100%,100%,100%);fill-opacity:1;" d="M 23.644531 13.472656 C 22.847656 9.507812 19.445312 6.605469 15.402344 6.441406 C 15.761719 5.457031 15.742188 4.371094 15.351562 3.394531 C 14.894531 4.429688 14.210938 5.351562 13.359375 6.09375 C 12.996094 6.4375 12.582031 6.722656 12.132812 6.941406 C 11.683594 7.113281 11.25 7.308594 10.824219 7.527344 C 9.167969 8.449219 7.855469 9.878906 7.074219 11.601562 C 6.625 12.597656 6.363281 13.671875 6.3125 14.765625 C 7.28125 14.460938 8.265625 14.222656 9.265625 14.046875 C 10.152344 13.890625 11.046875 13.8125 11.9375 13.691406 C 13.578125 13.457031 14.871094 12.507812 15.777344 11.113281 C 18.152344 11.878906 19.503906 14.378906 18.839844 16.785156 C 18.179688 19.191406 15.738281 20.648438 13.304688 20.089844 C 13.757812 21.105469 14.46875 21.980469 15.371094 22.625 C 15.828125 22.957031 16.332031 23.21875 16.859375 23.410156 C 17.097656 23.527344 17.355469 23.585938 17.617188 23.578125 C 17.921875 23.503906 18.214844 23.398438 18.496094 23.257812 C 22.316406 21.632812 24.472656 17.542969 23.652344 13.46875 Z M 9.566406 10.546875 C 10.078125 10.035156 10.804688 9.789062 11.523438 9.882812 C 11.609375 10.601562 11.363281 11.316406 10.851562 11.828125 C 10.339844 12.339844 9.625 12.589844 8.90625 12.507812 C 8.808594 11.785156 9.054688 11.0625 9.566406 10.546875 Z M 14.160156 23.921875 C 10.410156 23.53125 7.328125 20.789062 6.507812 17.109375 C 8.414062 16.070312 10.558594 15.550781 12.730469 15.601562 C 11.988281 16.726562 11.640625 18.0625 11.734375 19.40625 C 11.855469 21.191406 12.738281 22.835938 14.160156 23.921875 Z M 14.160156 23.921875 "/>
</g>
</svg>
