<?xml version="1.0" encoding="UTF-8"?>
<svg xmlns="http://www.w3.org/2000/svg" xmlns:xlink="http://www.w3.org/1999/xlink" width="30px" height="30px" viewBox="0 0 30 30" version="1.1">
<g id="surface1">
<path style=" stroke:none;fill-rule:nonzero;fill:rgb(35.294118%,55.686275%,63.137255%);fill-opacity:1;" d="M 30 15 C 30 23.285156 23.285156 30 15 30 C 6.714844 30 0 23.285156 0 15 C 0 6.714844 6.714844 0 15 0 C 23.285156 0 30 6.714844 30 15 Z M 30 15 "/>
<path style=" stroke:none;fill-rule:nonzero;fill:rgb(100%,100%,100%);fill-opacity:1;" d="M 19.6875 15 C 19.6875 17.589844 17.589844 19.6875 15 19.6875 C 12.410156 19.6875 10.3125 17.589844 10.3125 15 C 10.3125 12.410156 12.410156 10.3125 15 10.3125 C 17.589844 10.3125 19.6875 12.410156 19.6875 15 Z M 20.097656 6.171875 L 9.902344 6.171875 L 4.804688 15 L 9.902344 23.828125 L 20.097656 23.828125 L 25.195312 15 Z M 20.097656 6.171875 "/>
</g>
</svg>
